Coordinates
version=1
nRows=27
nColumns=12
inDegrees=yes

Units are S.I. units (second, meters, Newtons, ...)
Angles are in degrees

endheader
time	SC_y	SC_z	SC_x	AC_y	AC_z	AC_x	GH_y	GH_z	GH_yy	EL_x	PS_y
       0.0              -59.99          23.89          62.86           41.5         -7.724         -12.84          149.2          75.96          176.3           87.4          144.3
   0.02632              -59.99          23.89          62.86           41.5         -7.722         -12.84          149.2          75.96          176.3           87.4          144.3
   0.05264              -59.99          23.89          62.85          41.51         -7.719         -12.84          149.2          75.95          176.3          87.41          144.3
   0.07896              -59.99          23.89          62.84          41.51         -7.717         -12.83          149.2          75.95          176.3          87.41          144.2
    0.1053              -59.99          23.89          62.84          41.51         -7.714         -12.83          149.2          75.94          176.2          87.42          144.2
    0.1316              -59.99           23.9          62.83          41.51         -7.711         -12.83          149.2          75.94          176.2          87.43          144.2
    0.1579              -59.99           23.9          62.82          41.51         -7.708         -12.82          149.2          75.93          176.2          87.44          144.2
    0.1842              -59.99           23.9          62.81          41.52         -7.704         -12.82          149.2          75.92          176.2          87.44          144.2
    0.2106              -59.99           23.9           62.8          41.52         -7.701         -12.81          149.2          75.92          176.1          87.45          144.1
    0.2369              -59.99           23.9          62.79          41.52         -7.697         -12.81          149.1          75.91          176.1          87.46          144.1
    0.2632              -59.99          23.91          62.78          41.53         -7.692          -12.8          149.1           75.9          176.1          87.47          144.1
    0.2895              -59.99          23.91          62.77          41.53         -7.688          -12.8          149.1          75.89          176.0          87.48          144.1
    0.3159              -59.99          23.91          62.75          41.53         -7.683         -12.79          149.1          75.88          176.0           87.5          144.0
    0.3422              -59.99          23.91          62.74          41.54         -7.678         -12.79          149.1          75.87          175.9          87.51          144.0
    0.3685              -59.99          23.92          62.72          41.54         -7.672         -12.78          149.1          75.86          175.9          87.52          144.0
    0.3948              -59.99          23.92          62.71          41.55         -7.666         -12.77          149.0          75.85          175.8          87.54          143.9
    0.4211              -59.99          23.92          62.69          41.55         -7.659         -12.76          149.0          75.83          175.8          87.55          143.9
    0.4475              -59.99          23.93          62.67          41.56         -7.652         -12.76          149.0          75.82          175.7          87.57          143.8
    0.4738              -59.99          23.93          62.65          41.56         -7.644         -12.75          149.0           75.8          175.7          87.59          143.8
    0.5001              -59.99          23.94          62.62          41.57         -7.635         -12.74          148.9          75.78          175.6          87.61          143.7
    0.5264              -59.99          23.94           62.6          41.58         -7.626         -12.73          148.9          75.76          175.5          87.64          143.7
    0.5527              -59.99          23.95          62.57          41.59         -7.615         -12.71          148.9          75.74          175.4          87.66          143.6
    0.5791              -59.99          23.95          62.54          41.59         -7.603          -12.7          148.8          75.72          175.3          87.69          143.5
    0.6054              -59.99          23.96           62.5           41.6         -7.591         -12.68          148.8          75.69          175.2          87.72          143.4
    0.6317              -59.98          23.97          62.46          41.61         -7.576         -12.67          148.7          75.66          175.1          87.76          143.4
     0.658              -59.98          23.98          62.42          41.63          -7.56         -12.65          148.7          75.63          175.0           87.8          143.3
    0.6843              -59.98          23.99          62.37          41.64         -7.542         -12.63          148.6           75.6          174.8          87.84          143.1
